<svg width="46" height="82" viewBox="0 0 46 82" fill="none" xmlns="http://www.w3.org/2000/svg">
<g filter="url(#filter0_i_209_148)">
<path d="M44.8314 12.91L42.4767 21.797C42.0501 23.4048 41.1296 24.8494 39.8132 25.9766C38.4967 27.1038 36.8338 27.8714 35.0018 28.1975C33.1697 28.5237 31.2373 28.3961 29.4104 27.8285C27.5836 27.2608 25.9309 26.2743 24.6287 24.9743C15.4711 31.8563 11.6686 46.0714 16.6575 54.6569C18.6235 54.0898 20.7799 54.0795 22.8401 54.6272C25.5506 55.3454 27.9021 56.9702 29.3773 59.1441C30.8525 61.3181 31.3306 63.8631 30.7065 66.2194L28.3535 75.1055C27.729 77.4617 26.0535 79.4361 23.6953 80.5945C21.3372 81.7528 18.4897 82.0002 15.7791 81.2822C-14.8852 73.1583 6.30189 -6.80451 36.9661 1.31946C39.6758 2.03837 42.0263 3.66304 43.5011 5.83641C44.976 8.00979 45.4544 10.554 44.8314 12.91Z" fill="white"/>
</g>
<defs>
<filter id="filter0_i_209_148" x="0.816406" y="0.740723" width="44.2812" height="84.9448" filterUnits="userSpaceOnUse" color-interpolation-filters="sRGB">
<feFlood flood-opacity="0" result="BackgroundImageFix"/>
<feBlend mode="normal" in="SourceGraphic" in2="BackgroundImageFix" result="shape"/>
<feColorMatrix in="SourceAlpha" type="matrix" values="0 0 0 0 0 0 0 0 0 0 0 0 0 0 0 0 0 0 127 0" result="hardAlpha"/>
<feOffset dy="4"/>
<feGaussianBlur stdDeviation="2"/>
<feComposite in2="hardAlpha" operator="arithmetic" k2="-1" k3="1"/>
<feColorMatrix type="matrix" values="0 0 0 0 0 0 0 0 0 0 0 0 0 0 0 0 0 0 0.25 0"/>
<feBlend mode="normal" in2="shape" result="effect1_innerShadow_209_148"/>
</filter>
</defs>
</svg>
