<?xml version="1.0" encoding="utf-8"?>
<svg version="1.1" xmlns="http://www.w3.org/2000/svg" width="549" height="455">
  <path d="M0 0 C0.33 0 0.66 0 1 0 C1 144.87 1 289.74 1 439 C-2.3 439.66 -5.6 440.32 -9 441 C-10.22460938 441.2578125 -11.44921875 441.515625 -12.7109375 441.78125 C-89.08419655 456.76278482 -172.62753927 436.37365097 -245.60546875 414.23046875 C-326.81214576 389.6537801 -400.09783444 390.72437779 -480.06286621 419.30780029 C-481.92685926 419.97386448 -483.79202016 420.63665763 -485.65722656 421.29931641 C-491.4493891 423.35988105 -497.23034655 425.44752305 -503 427.5703125 C-505.33333333 428.421875 -507.66666667 429.2734375 -510 430.125 C-511.7325 430.76888672 -511.7325 430.76888672 -513.5 431.42578125 C-525.20737639 435.67231844 -535.47340226 438 -548 438 C-548 298.41 -548 158.82 -548 15 C-510.57325205 6.19370637 -474.30615929 3.7783849 -436 8 C-434.36538818 8.17740723 -434.36538818 8.17740723 -432.69775391 8.35839844 C-398.99776738 12.16581391 -366.25272113 20.20164455 -334.1328125 30.9609375 C-310.51781465 38.84960599 -286.93186106 45.71090214 -262 48 C-261.14970215 48.0839502 -260.2994043 48.16790039 -259.42333984 48.25439453 C-249.16404843 49.17066612 -238.91733466 49.24234193 -228.625 49.25 C-227.68069122 49.25100708 -226.73638245 49.25201416 -225.76345825 49.25305176 C-208.67015759 49.24080327 -191.96108998 48.23959754 -175 46 C-173.91654297 45.86078125 -172.83308594 45.7215625 -171.71679688 45.578125 C-79.75017852 35.04216264 -79.75017852 35.04216264 0 0 Z " fill="#3E637E" transform="translate(548,3)"/>
</svg>